<svg width="25" height="26" viewBox="0 0 25 26" fill="none" xmlns="http://www.w3.org/2000/svg">
<path d="M0 12.9668C0 13.3352 0.146329 13.6884 0.406796 13.9489C0.667263 14.2094 1.02053 14.3557 1.38889 14.3557H9.72222C10.0906 14.3557 10.4438 14.2094 10.7043 13.9489C10.9648 13.6884 11.1111 13.3352 11.1111 12.9668V1.85569C11.1111 1.48733 10.9648 1.13406 10.7043 0.873593C10.4438 0.613126 10.0906 0.466797 9.72222 0.466797H1.38889C1.02053 0.466797 0.667263 0.613126 0.406796 0.873593C0.146329 1.13406 0 1.48733 0 1.85569V12.9668ZM0 24.0779C0 24.4463 0.146329 24.7995 0.406796 25.06C0.667263 25.3205 1.02053 25.4668 1.38889 25.4668H9.72222C10.0906 25.4668 10.4438 25.3205 10.7043 25.06C10.9648 24.7995 11.1111 24.4463 11.1111 24.0779V18.5224C11.1111 18.154 10.9648 17.8007 10.7043 17.5403C10.4438 17.2798 10.0906 17.1335 9.72222 17.1335H1.38889C1.02053 17.1335 0.667263 17.2798 0.406796 17.5403C0.146329 17.8007 0 18.154 0 18.5224V24.0779ZM13.8889 24.0779C13.8889 24.4463 14.0352 24.7995 14.2957 25.06C14.5562 25.3205 14.9094 25.4668 15.2778 25.4668H23.6111C23.9795 25.4668 24.3327 25.3205 24.5932 25.06C24.8537 24.7995 25 24.4463 25 24.0779V12.9668C25 12.5984 24.8537 12.2452 24.5932 11.9847C24.3327 11.7242 23.9795 11.5779 23.6111 11.5779H15.2778C14.9094 11.5779 14.5562 11.7242 14.2957 11.9847C14.0352 12.2452 13.8889 12.5984 13.8889 12.9668V24.0779ZM15.2778 0.466797C14.9094 0.466797 14.5562 0.613126 14.2957 0.873593C14.0352 1.13406 13.8889 1.48733 13.8889 1.85569V7.41124C13.8889 7.7796 14.0352 8.13287 14.2957 8.39333C14.5562 8.6538 14.9094 8.80013 15.2778 8.80013H23.6111C23.9795 8.80013 24.3327 8.6538 24.5932 8.39333C24.8537 8.13287 25 7.7796 25 7.41124V1.85569C25 1.48733 24.8537 1.13406 24.5932 0.873593C24.3327 0.613126 23.9795 0.466797 23.6111 0.466797H15.2778Z" fill="black"/>
</svg>
