<svg width="30" height="31" viewBox="0 0 30 31" fill="none" xmlns="http://www.w3.org/2000/svg">
<path d="M0 15.4668C0 15.9088 0.175595 16.3327 0.488155 16.6453C0.800716 16.9579 1.22464 17.1335 1.66667 17.1335H11.6667C12.1087 17.1335 12.5326 16.9579 12.8452 16.6453C13.1577 16.3327 13.3333 15.9088 13.3333 15.4668V2.13346C13.3333 1.69144 13.1577 1.26751 12.8452 0.954952C12.5326 0.642392 12.1087 0.466797 11.6667 0.466797H1.66667C1.22464 0.466797 0.800716 0.642392 0.488155 0.954952C0.175595 1.26751 0 1.69144 0 2.13346V15.4668ZM0 28.8001C0 29.2422 0.175595 29.6661 0.488155 29.9786C0.800716 30.2912 1.22464 30.4668 1.66667 30.4668H11.6667C12.1087 30.4668 12.5326 30.2912 12.8452 29.9786C13.1577 29.6661 13.3333 29.2422 13.3333 28.8001V22.1335C13.3333 21.6914 13.1577 21.2675 12.8452 20.955C12.5326 20.6424 12.1087 20.4668 11.6667 20.4668H1.66667C1.22464 20.4668 0.800716 20.6424 0.488155 20.955C0.175595 21.2675 0 21.6914 0 22.1335V28.8001ZM16.6667 28.8001C16.6667 29.2422 16.8423 29.6661 17.1548 29.9786C17.4674 30.2912 17.8913 30.4668 18.3333 30.4668H28.3333C28.7754 30.4668 29.1993 30.2912 29.5118 29.9786C29.8244 29.6661 30 29.2422 30 28.8001V15.4668C30 15.0248 29.8244 14.6008 29.5118 14.2883C29.1993 13.9757 28.7754 13.8001 28.3333 13.8001H18.3333C17.8913 13.8001 17.4674 13.9757 17.1548 14.2883C16.8423 14.6008 16.6667 15.0248 16.6667 15.4668V28.8001ZM18.3333 0.466797C17.8913 0.466797 17.4674 0.642392 17.1548 0.954952C16.8423 1.26751 16.6667 1.69144 16.6667 2.13346V8.80013C16.6667 9.24216 16.8423 9.66608 17.1548 9.97864C17.4674 10.2912 17.8913 10.4668 18.3333 10.4668H28.3333C28.7754 10.4668 29.1993 10.2912 29.5118 9.97864C29.8244 9.66608 30 9.24216 30 8.80013V2.13346C30 1.69144 29.8244 1.26751 29.5118 0.954952C29.1993 0.642392 28.7754 0.466797 28.3333 0.466797H18.3333Z" fill="black"/>
</svg>
