<svg width="63" height="51" viewBox="0 0 63 51" fill="none" xmlns="http://www.w3.org/2000/svg">
<path d="M5.37039 45.2338V13.808L0.307777 4.14961C-0.07328 3.42883 -0.100499 2.69556 0.226122 1.9498C0.552742 1.20404 1.12433 0.663937 1.94088 0.329497C2.75743 -0.00494254 3.58813 -0.0405006 4.43299 0.222823C5.27785 0.486146 5.88972 0.978195 6.26859 1.69897L12.556 13.6638H50.444L56.7314 1.69897C57.1125 0.978195 57.7254 0.473652 58.5703 0.185342C59.4151 -0.102968 60.2448 -0.0549163 61.0591 0.329497C61.8757 0.665859 62.4473 1.20692 62.7739 1.95268C63.1005 2.69844 63.0733 3.43075 62.6922 4.14961L57.6296 13.808V45.2338C57.6296 46.8195 56.9905 48.1774 55.7124 49.3076C54.4342 50.4378 52.8958 51.0019 51.0972 51H11.9028C10.1064 51 8.56909 50.4359 7.29092 49.3076C6.01274 48.1794 5.37257 46.8214 5.37039 45.2338ZM24.9676 30.8183H38.0324C38.9578 30.8183 39.7341 30.5415 40.3612 29.988C40.9883 29.4344 41.3008 28.7501 41.2986 27.9352C41.2964 27.1202 40.9829 26.436 40.3579 25.8824C39.733 25.3289 38.9578 25.0521 38.0324 25.0521H24.9676C24.0422 25.0521 23.267 25.3289 22.6421 25.8824C22.0171 26.436 21.7036 27.1202 21.7014 27.9352C21.6992 28.7501 22.0128 29.4354 22.6421 29.9908C23.2714 30.5463 24.0465 30.8221 24.9676 30.8183ZM11.9028 45.2338H51.0972V19.43H11.9028V45.2338Z" fill="black"/>
</svg>
