<svg width="40" height="40" viewBox="0 0 40 40" fill="none" xmlns="http://www.w3.org/2000/svg">
<path d="M32.4 21.65L32.3833 21.6834C32.45 21.1334 32.5167 20.5667 32.5167 20C32.5167 19.4334 32.4667 18.9 32.4 18.35L32.4167 18.3834L36.4833 15.1834L32.4333 8.15004L27.65 10.0834L27.6667 10.1C26.8 9.43337 25.85 8.86671 24.8167 8.43337H24.8333L24.0667 3.33337H15.95L15.2167 8.45004H15.2333C14.2 8.88337 13.25 9.45004 12.3833 10.1167L12.4 10.1L7.59999 8.15004L3.53333 15.1834L7.59999 18.3834L7.61666 18.35C7.54999 18.9 7.49999 19.4334 7.49999 20C7.49999 20.5667 7.54999 21.1334 7.63333 21.6834L7.61666 21.65L4.11666 24.4L3.56666 24.8334L7.61666 31.8334L12.4167 29.9167L12.3833 29.85C13.2667 30.5334 14.2167 31.1 15.2667 31.5334H15.2167L15.9667 36.6667H24.05C24.05 36.6667 24.1 36.3667 24.15 35.9667L24.7833 31.55H24.7667C25.8 31.1167 26.7667 30.55 27.65 29.8667L27.6167 29.9334L32.4167 31.85L36.4667 24.85C36.4667 24.85 36.2333 24.65 35.9167 24.4167L32.4 21.65ZM20 25.8334C16.7833 25.8334 14.1667 23.2167 14.1667 20C14.1667 16.7834 16.7833 14.1667 20 14.1667C23.2167 14.1667 25.8333 16.7834 25.8333 20C25.8333 23.2167 23.2167 25.8334 20 25.8334Z" fill="black"/>
</svg>
