<svg width="486" height="445" viewBox="0 0 486 445" fill="none" xmlns="http://www.w3.org/2000/svg">
<path d="M93.4292 222.5C61.4792 223.328 35.3472 233.923 15.0333 254.286H-24.6083C-40.7806 254.286 -54.3889 250.933 -65.4333 244.229C-76.4778 237.524 -82 227.715 -82 214.802C-82 156.363 -69.7722 127.143 -45.3167 127.143C-44.1333 127.143 -39.8438 128.881 -32.4479 132.358C-25.0521 135.834 -15.4375 139.352 -3.60417 142.912C8.22916 146.471 19.9639 148.251 31.6 148.251C44.8139 148.251 57.9292 146.347 70.9458 142.539C69.9597 148.664 69.4667 154.128 69.4667 158.929C69.4667 181.94 77.4542 203.131 93.4292 222.5ZM410.267 380.684C410.267 400.55 403.068 416.236 388.671 427.741C374.274 439.247 355.143 445 331.279 445H72.7208C48.8569 445 29.7264 439.247 15.3292 427.741C0.93194 416.236 -6.26667 400.55 -6.26667 380.684C-6.26667 371.909 -5.92153 363.342 -5.23125 354.982C-4.54098 346.622 -3.16042 337.599 -1.08959 327.914C0.981246 318.23 3.59444 309.249 6.75 300.971C9.90555 292.693 14.1458 284.623 19.4708 276.759C24.7958 268.896 30.9097 262.191 37.8125 256.645C44.7153 251.099 53.1465 246.67 63.1062 243.359C73.066 240.048 84.0611 238.393 96.0917 238.393C98.0639 238.393 102.304 240.173 108.812 243.732C115.321 247.291 122.519 251.264 130.408 255.652C138.297 260.039 148.849 264.012 162.062 267.571C175.276 271.13 188.589 272.91 202 272.91C215.411 272.91 228.724 271.13 241.937 267.571C255.151 264.012 265.703 260.039 273.592 255.652C281.481 251.264 288.679 247.291 295.187 243.732C301.696 240.173 305.936 238.393 307.908 238.393C319.939 238.393 330.934 240.048 340.894 243.359C350.853 246.67 359.285 251.099 366.187 256.645C373.09 262.191 379.204 268.896 384.529 276.759C389.854 284.623 394.094 292.693 397.25 300.971C400.406 309.249 403.019 318.23 405.09 327.914C407.16 337.599 408.541 346.622 409.231 354.982C409.922 363.342 410.267 371.909 410.267 380.684ZM107.333 63.5714C107.333 81.1198 99.9375 96.1021 85.1458 108.518C70.3542 120.935 52.5055 127.143 31.6 127.143C10.6944 127.143 -7.15417 120.935 -21.9458 108.518C-36.7375 96.1021 -44.1333 81.1198 -44.1333 63.5714C-44.1333 46.0231 -36.7375 31.0407 -21.9458 18.6244C-7.15417 6.20815 10.6944 0 31.6 0C52.5055 0 70.3542 6.20815 85.1458 18.6244C99.9375 31.0407 107.333 46.0231 107.333 63.5714ZM315.6 158.929C315.6 185.251 304.506 207.725 282.319 226.349C260.131 244.973 233.358 254.286 202 254.286C170.642 254.286 143.869 244.973 121.681 226.349C99.4937 207.725 88.4 185.251 88.4 158.929C88.4 132.606 99.4937 110.133 121.681 91.5081C143.869 72.8837 170.642 63.5714 202 63.5714C233.358 63.5714 260.131 72.8837 282.319 91.5081C304.506 110.133 315.6 132.606 315.6 158.929ZM486 214.802C486 227.715 480.478 237.524 469.433 244.229C458.389 250.933 444.781 254.286 428.608 254.286H388.967C368.653 233.923 342.521 223.328 310.571 222.5C326.546 203.131 334.533 181.94 334.533 158.929C334.533 154.128 334.04 148.664 333.054 142.539C346.071 146.347 359.186 148.251 372.4 148.251C384.036 148.251 395.771 146.471 407.604 142.912C419.437 139.352 429.052 135.834 436.448 132.358C443.844 128.881 448.133 127.143 449.317 127.143C473.772 127.143 486 156.363 486 214.802ZM448.133 63.5714C448.133 81.1198 440.737 96.1021 425.946 108.518C411.154 120.935 393.306 127.143 372.4 127.143C351.494 127.143 333.646 120.935 318.854 108.518C304.062 96.1021 296.667 81.1198 296.667 63.5714C296.667 46.0231 304.062 31.0407 318.854 18.6244C333.646 6.20815 351.494 0 372.4 0C393.306 0 411.154 6.20815 425.946 18.6244C440.737 31.0407 448.133 46.0231 448.133 63.5714Z" fill="black"/>
</svg>
