<svg width="40" height="40" viewBox="0 0 40 40" fill="none" xmlns="http://www.w3.org/2000/svg">
<path d="M12.3542 20C10.1042 20.0744 8.26389 21.0268 6.83333 22.8571H4.04167C2.90278 22.8571 1.94444 22.5558 1.16667 21.9531C0.388889 21.3504 0 20.4688 0 19.308C0 14.0551 0.861111 11.4286 2.58333 11.4286C2.66667 11.4286 2.96875 11.5848 3.48958 11.8973C4.01042 12.2098 4.6875 12.526 5.52083 12.846C6.35417 13.1659 7.18056 13.3259 8 13.3259C8.93056 13.3259 9.85417 13.1548 10.7708 12.8125C10.7014 13.3631 10.6667 13.8542 10.6667 14.2857C10.6667 16.3542 11.2292 18.2589 12.3542 20ZM34.6667 34.2188C34.6667 36.0045 34.1597 37.4144 33.1458 38.4487C32.1319 39.4829 30.7847 40 29.1042 40H10.8958C9.21528 40 7.86806 39.4829 6.85417 38.4487C5.84028 37.4144 5.33333 36.0045 5.33333 34.2188C5.33333 33.4301 5.35764 32.66 5.40625 31.9085C5.45486 31.157 5.55208 30.346 5.69792 29.4754C5.84375 28.6049 6.02778 27.7976 6.25 27.0536C6.47222 26.3095 6.77083 25.5841 7.14583 24.8772C7.52083 24.1704 7.95139 23.5677 8.4375 23.0692C8.92361 22.5707 9.51736 22.1726 10.2188 21.875C10.9201 21.5774 11.6944 21.4286 12.5417 21.4286C12.6806 21.4286 12.9792 21.5885 13.4375 21.9085C13.8958 22.2284 14.4028 22.5856 14.9583 22.9799C15.5139 23.3743 16.2569 23.7314 17.1875 24.0513C18.1181 24.3713 19.0556 24.5313 20 24.5313C20.9444 24.5313 21.8819 24.3713 22.8125 24.0513C23.7431 23.7314 24.4861 23.3743 25.0417 22.9799C25.5972 22.5856 26.1042 22.2284 26.5625 21.9085C27.0208 21.5885 27.3194 21.4286 27.4583 21.4286C28.3056 21.4286 29.0799 21.5774 29.7813 21.875C30.4826 22.1726 31.0764 22.5707 31.5625 23.0692C32.0486 23.5677 32.4792 24.1704 32.8542 24.8772C33.2292 25.5841 33.5278 26.3095 33.75 27.0536C33.9722 27.7976 34.1563 28.6049 34.3021 29.4754C34.4479 30.346 34.5451 31.157 34.5938 31.9085C34.6424 32.66 34.6667 33.4301 34.6667 34.2188ZM13.3333 5.71429C13.3333 7.29167 12.8125 8.63839 11.7708 9.75446C10.7292 10.8705 9.47222 11.4286 8 11.4286C6.52778 11.4286 5.27083 10.8705 4.22917 9.75446C3.1875 8.63839 2.66667 7.29167 2.66667 5.71429C2.66667 4.1369 3.1875 2.79018 4.22917 1.67411C5.27083 0.558036 6.52778 0 8 0C9.47222 0 10.7292 0.558036 11.7708 1.67411C12.8125 2.79018 13.3333 4.1369 13.3333 5.71429ZM28 14.2857C28 16.6518 27.2188 18.6719 25.6563 20.346C24.0938 22.0201 22.2083 22.8571 20 22.8571C17.7917 22.8571 15.9063 22.0201 14.3438 20.346C12.7813 18.6719 12 16.6518 12 14.2857C12 11.9196 12.7813 9.89955 14.3438 8.22545C15.9063 6.55134 17.7917 5.71429 20 5.71429C22.2083 5.71429 24.0938 6.55134 25.6563 8.22545C27.2188 9.89955 28 11.9196 28 14.2857ZM40 19.308C40 20.4688 39.6111 21.3504 38.8333 21.9531C38.0556 22.5558 37.0972 22.8571 35.9583 22.8571H33.1667C31.7361 21.0268 29.8958 20.0744 27.6458 20C28.7708 18.2589 29.3333 16.3542 29.3333 14.2857C29.3333 13.8542 29.2986 13.3631 29.2292 12.8125C30.1458 13.1548 31.0694 13.3259 32 13.3259C32.8194 13.3259 33.6458 13.1659 34.4792 12.846C35.3125 12.526 35.9896 12.2098 36.5104 11.8973C37.0313 11.5848 37.3333 11.4286 37.4167 11.4286C39.1389 11.4286 40 14.0551 40 19.308ZM37.3333 5.71429C37.3333 7.29167 36.8125 8.63839 35.7708 9.75446C34.7292 10.8705 33.4722 11.4286 32 11.4286C30.5278 11.4286 29.2708 10.8705 28.2292 9.75446C27.1875 8.63839 26.6667 7.29167 26.6667 5.71429C26.6667 4.1369 27.1875 2.79018 28.2292 1.67411C29.2708 0.558036 30.5278 0 32 0C33.4722 0 34.7292 0.558036 35.7708 1.67411C36.8125 2.79018 37.3333 4.1369 37.3333 5.71429Z" fill="black"/>
</svg>
